<svg version="1.1" id="Layer_1" xmlns:x="ns_extend;" xmlns:i="ns_ai;" xmlns:graph="ns_graphs;" xmlns="http://www.w3.org/2000/svg" xmlns:xlink="http://www.w3.org/1999/xlink" x="0px" y="0px" viewBox="0 0 43.4 43.7" style="enable-background:new 0 0 43.4 43.7;" xml:space="preserve">
 <style type="text/css">
  .st0{fill-rule:evenodd;clip-rule:evenodd;fill:#FCD72B;}
 </style>
 <metadata>
  <sfw xmlns="ns_sfw;">
   <slices>
   </slices>
   <sliceSourceBounds bottomLeftOrigin="true" height="43.7" width="43.4" x="124.3" y="-222.1">
   </sliceSourceBounds>
  </sfw>
 </metadata>
 <g>
  <desc>
   http://alpaca.markets/
  </desc>
  <path class="st0" d="M15.1,43l1.7-18.3h-0.2c-1.4,0-2.5-0.5-3.6-1.4c-1-0.9-1.7-2.2-2-3.5l3.2-2.1v0c0-1.4,0.6-2.8,1.5-3.9
		c1-1,2.3-1.7,3.8-1.7v0h1V8.5c0.7,0,1.3,0.2,1.9,0.7c0.5,0.4,0.9,1.1,1,1.8h0V8.5c0.5,0,1,0.1,1.5,0.4c0.4,0.3,0.8,0.6,1.1,1.1
		c0.3,0.5,0.4,1,0.4,1.5c0,0.5-0.2,1-0.4,1.5c0.9,0.6,1.6,1.4,2.1,2.3c0.5,0.9,0.8,2,0.8,3v22.1c0,0.3,0.1,0.6,0.4,0.9
		c0.2,0.2,0.5,0.4,0.9,0.4h1.4c-2,1-4.2,1.8-6.5,2.1C35.4,42.1,43.4,33,43.4,22c0-12.2-9.7-22-21.7-22C9.7,0,0,9.8,0,22
		C0,31.8,6.3,40.1,15.1,43z M17.7,18.1c-0.1,0.1-0.2,0.3-0.2,0.5l-0.1,0.7h1.3c0.4,0,0.7-0.1,0.9-0.4c0.2-0.3,0.4-0.6,0.4-1h-1.9
		C17.9,17.9,17.8,18,17.7,18.1z">
  </path>
 </g>
</svg>